{
    "asset" : {
        "generator" : "Khronos glTF Blender I/O v3.2.43",
        "version" : "2.0"
    },
    "scene" : 0,
    "scenes" : [
        {
            "name" : "Scene",
            "nodes" : [
                0,
                1,
                2,
                3,
                4,
                5
            ]
        }
    ],
    "nodes" : [
        {
            "mesh" : 0,
            "name" : "Case",
            "rotation" : [
                0,
                0,
                -1,
                0
            ],
            "scale" : [
                -1.0287995338439941,
                -2.0366461277008057,
                -0.07479803264141083
            ],
            "translation" : [
                0,
                2.299999952316284,
                0
            ]
        },
        {
            "mesh" : 1,
            "name" : "Cube.001",
            "scale" : [
                0.29286542534828186,
                0.2343100756406784,
                0.010542885400354862
            ],
            "translation" : [
                -0.5914940237998962,
                3.979605197906494,
                -0.0745803490281105
            ]
        },
        {
            "mesh" : 2,
            "name" : "Circle",
            "rotation" : [
                0.7071068286895752,
                0,
                0,
                0.7071068286895752
            ],
            "scale" : [
                0.09561646729707718,
                0.09561646729707718,
                0.09561646729707718
            ],
            "translation" : [
                -0.45575568079948425,
                3.8885116577148438,
                -0.08350454270839691
            ]
        },
        {
            "mesh" : 3,
            "name" : "Circle.001",
            "rotation" : [
                0.7071068286895752,
                0,
                0,
                0.7071068286895752
            ],
            "scale" : [
                0.09561646729707718,
                0.09561646729707718,
                0.09561646729707718
            ],
            "translation" : [
                -0.7389865517616272,
                3.8885116577148438,
                -0.08350454270839691
            ]
        },
        {
            "mesh" : 4,
            "name" : "Circle.002",
            "rotation" : [
                0.7071068286895752,
                0,
                0,
                0.7071068286895752
            ],
            "scale" : [
                0.09561646729707718,
                0.09561646729707718,
                0.09561646729707718
            ],
            "translation" : [
                -0.5980879068374634,
                4.0743184089660645,
                -0.08350454270839691
            ]
        },
        {
            "mesh" : 5,
            "name" : "Cube.002",
            "scale" : [
                13.039637565612793,
                0.08010013401508331,
                13.039637565612793
            ]
        }
    ],
    "materials" : [
        {
            "doubleSided" : true,
            "name" : "Case",
            "pbrMetallicRoughness" : {
                "baseColorFactor" : [
                    0,
                    0,
                    0,
                    1
                ],
                "metallicFactor" : 0,
                "roughnessFactor" : 0.5
            }
        },
        {
            "doubleSided" : true,
            "name" : "Material.002",
            "pbrMetallicRoughness" : {
                "baseColorTexture" : {
                    "index" : 0
                },
                "metallicFactor" : 0,
                "roughnessFactor" : 0.5
            }
        },
        {
            "doubleSided" : true,
            "name" : "Material.003",
            "pbrMetallicRoughness" : {
                "baseColorFactor" : [
                    0.04231142997741699,
                    0.04231142997741699,
                    0.04231142997741699,
                    1
                ],
                "metallicFactor" : 0,
                "roughnessFactor" : 0.5
            }
        },
        {
            "doubleSided" : true,
            "name" : "Material.004",
            "pbrMetallicRoughness" : {
                "baseColorFactor" : [
                    0.0006263452814891934,
                    0.8000000715255737,
                    0.33285418152809143,
                    1
                ],
                "metallicFactor" : 0,
                "roughnessFactor" : 0.5
            }
        }
    ],
    "meshes" : [
        {
            "name" : "Cube.003",
            "primitives" : [
                {
                    "attributes" : {
                        "POSITION" : 0,
                        "NORMAL" : 1,
                        "TEXCOORD_0" : 2
                    },
                    "indices" : 3,
                    "material" : 0
                },
                {
                    "attributes" : {
                        "POSITION" : 4,
                        "NORMAL" : 5,
                        "TEXCOORD_0" : 6
                    },
                    "indices" : 7,
                    "material" : 1
                }
            ]
        },
        {
            "name" : "Cube.004",
            "primitives" : [
                {
                    "attributes" : {
                        "POSITION" : 8,
                        "NORMAL" : 9,
                        "TEXCOORD_0" : 10
                    },
                    "indices" : 11,
                    "material" : 2
                }
            ]
        },
        {
            "name" : "Circle",
            "primitives" : [
                {
                    "attributes" : {
                        "POSITION" : 12,
                        "NORMAL" : 13,
                        "TEXCOORD_0" : 14
                    },
                    "indices" : 15
                }
            ]
        },
        {
            "name" : "Circle.001",
            "primitives" : [
                {
                    "attributes" : {
                        "POSITION" : 16,
                        "NORMAL" : 17,
                        "TEXCOORD_0" : 18
                    },
                    "indices" : 19
                }
            ]
        },
        {
            "name" : "Circle.002",
            "primitives" : [
                {
                    "attributes" : {
                        "POSITION" : 20,
                        "NORMAL" : 21,
                        "TEXCOORD_0" : 22
                    },
                    "indices" : 19
                }
            ]
        },
        {
            "name" : "Cube",
            "primitives" : [
                {
                    "attributes" : {
                        "POSITION" : 23,
                        "NORMAL" : 24,
                        "TEXCOORD_0" : 25
                    },
                    "indices" : 26,
                    "material" : 3
                }
            ]
        }
    ],
    "textures" : [
        {
            "sampler" : 0,
            "source" : 0
        }
    ],
    "images" : [
        {
            "mimeType" : "image/jpeg",
            "name" : "0",
            "uri" : "0.jpg"
        }
    ],
    "accessors" : [
        {
            "bufferView" : 0,
            "componentType" : 5126,
            "count" : 380,
            "max" : [
                1,
                1,
                1
            ],
            "min" : [
                -1,
                -1,
                -0.9913106560707092
            ],
            "type" : "VEC3"
        },
        {
            "bufferView" : 1,
            "componentType" : 5126,
            "count" : 380,
            "type" : "VEC3"
        },
        {
            "bufferView" : 2,
            "componentType" : 5126,
            "count" : 380,
            "type" : "VEC2"
        },
        {
            "bufferView" : 3,
            "componentType" : 5123,
            "count" : 558,
            "type" : "SCALAR"
        },
        {
            "bufferView" : 4,
            "componentType" : 5126,
            "count" : 4,
            "max" : [
                0.8440553545951843,
                0.8440554141998291,
                -0.9027735590934753
            ],
            "min" : [
                -0.8440553545951843,
                -0.8440554141998291,
                -0.9027735590934753
            ],
            "type" : "VEC3"
        },
        {
            "bufferView" : 5,
            "componentType" : 5126,
            "count" : 4,
            "type" : "VEC3"
        },
        {
            "bufferView" : 6,
            "componentType" : 5126,
            "count" : 4,
            "type" : "VEC2"
        },
        {
            "bufferView" : 7,
            "componentType" : 5123,
            "count" : 6,
            "type" : "SCALAR"
        },
        {
            "bufferView" : 8,
            "componentType" : 5126,
            "count" : 384,
            "max" : [
                1,
                1,
                1
            ],
            "min" : [
                -1,
                -1,
                -1
            ],
            "type" : "VEC3"
        },
        {
            "bufferView" : 9,
            "componentType" : 5126,
            "count" : 384,
            "type" : "VEC3"
        },
        {
            "bufferView" : 10,
            "componentType" : 5126,
            "count" : 384,
            "type" : "VEC2"
        },
        {
            "bufferView" : 11,
            "componentType" : 5123,
            "count" : 564,
            "type" : "SCALAR"
        },
        {
            "bufferView" : 12,
            "componentType" : 5126,
            "count" : 224,
            "max" : [
                1,
                0,
                1
            ],
            "min" : [
                -1,
                -0.0856470838189125,
                -1
            ],
            "type" : "VEC3"
        },
        {
            "bufferView" : 13,
            "componentType" : 5126,
            "count" : 224,
            "type" : "VEC3"
        },
        {
            "bufferView" : 14,
            "componentType" : 5126,
            "count" : 224,
            "type" : "VEC2"
        },
        {
            "bufferView" : 15,
            "componentType" : 5123,
            "count" : 474,
            "type" : "SCALAR"
        },
        {
            "bufferView" : 16,
            "componentType" : 5126,
            "count" : 160,
            "max" : [
                1,
                0,
                1
            ],
            "min" : [
                -1,
                -0.0856470838189125,
                -1
            ],
            "type" : "VEC3"
        },
        {
            "bufferView" : 17,
            "componentType" : 5126,
            "count" : 160,
            "type" : "VEC3"
        },
        {
            "bufferView" : 18,
            "componentType" : 5126,
            "count" : 160,
            "type" : "VEC2"
        },
        {
            "bufferView" : 19,
            "componentType" : 5123,
            "count" : 282,
            "type" : "SCALAR"
        },
        {
            "bufferView" : 20,
            "componentType" : 5126,
            "count" : 160,
            "max" : [
                1,
                0,
                1
            ],
            "min" : [
                -1,
                -0.0856470838189125,
                -1
            ],
            "type" : "VEC3"
        },
        {
            "bufferView" : 21,
            "componentType" : 5126,
            "count" : 160,
            "type" : "VEC3"
        },
        {
            "bufferView" : 22,
            "componentType" : 5126,
            "count" : 160,
            "type" : "VEC2"
        },
        {
            "bufferView" : 23,
            "componentType" : 5126,
            "count" : 116,
            "max" : [
                1,
                166.65158081054688,
                1
            ],
            "min" : [
                -1,
                -1,
                -1
            ],
            "type" : "VEC3"
        },
        {
            "bufferView" : 24,
            "componentType" : 5126,
            "count" : 116,
            "type" : "VEC3"
        },
        {
            "bufferView" : 25,
            "componentType" : 5126,
            "count" : 116,
            "type" : "VEC2"
        },
        {
            "bufferView" : 26,
            "componentType" : 5123,
            "count" : 228,
            "type" : "SCALAR"
        }
    ],
    "bufferViews" : [
        {
            "buffer" : 0,
            "byteLength" : 4560,
            "byteOffset" : 0
        },
        {
            "buffer" : 0,
            "byteLength" : 4560,
            "byteOffset" : 4560
        },
        {
            "buffer" : 0,
            "byteLength" : 3040,
            "byteOffset" : 9120
        },
        {
            "buffer" : 0,
            "byteLength" : 1116,
            "byteOffset" : 12160
        },
        {
            "buffer" : 0,
            "byteLength" : 48,
            "byteOffset" : 13276
        },
        {
            "buffer" : 0,
            "byteLength" : 48,
            "byteOffset" : 13324
        },
        {
            "buffer" : 0,
            "byteLength" : 32,
            "byteOffset" : 13372
        },
        {
            "buffer" : 0,
            "byteLength" : 12,
            "byteOffset" : 13404
        },
        {
            "buffer" : 0,
            "byteLength" : 4608,
            "byteOffset" : 13416
        },
        {
            "buffer" : 0,
            "byteLength" : 4608,
            "byteOffset" : 18024
        },
        {
            "buffer" : 0,
            "byteLength" : 3072,
            "byteOffset" : 22632
        },
        {
            "buffer" : 0,
            "byteLength" : 1128,
            "byteOffset" : 25704
        },
        {
            "buffer" : 0,
            "byteLength" : 2688,
            "byteOffset" : 26832
        },
        {
            "buffer" : 0,
            "byteLength" : 2688,
            "byteOffset" : 29520
        },
        {
            "buffer" : 0,
            "byteLength" : 1792,
            "byteOffset" : 32208
        },
        {
            "buffer" : 0,
            "byteLength" : 948,
            "byteOffset" : 34000
        },
        {
            "buffer" : 0,
            "byteLength" : 1920,
            "byteOffset" : 34948
        },
        {
            "buffer" : 0,
            "byteLength" : 1920,
            "byteOffset" : 36868
        },
        {
            "buffer" : 0,
            "byteLength" : 1280,
            "byteOffset" : 38788
        },
        {
            "buffer" : 0,
            "byteLength" : 564,
            "byteOffset" : 40068
        },
        {
            "buffer" : 0,
            "byteLength" : 1920,
            "byteOffset" : 40632
        },
        {
            "buffer" : 0,
            "byteLength" : 1920,
            "byteOffset" : 42552
        },
        {
            "buffer" : 0,
            "byteLength" : 1280,
            "byteOffset" : 44472
        },
        {
            "buffer" : 0,
            "byteLength" : 1392,
            "byteOffset" : 45752
        },
        {
            "buffer" : 0,
            "byteLength" : 1392,
            "byteOffset" : 47144
        },
        {
            "buffer" : 0,
            "byteLength" : 928,
            "byteOffset" : 48536
        },
        {
            "buffer" : 0,
            "byteLength" : 456,
            "byteOffset" : 49464
        }
    ],
    "samplers" : [
        {
            "magFilter" : 9729,
            "minFilter" : 9987
        }
    ],
    "buffers" : [
        {
            "byteLength" : 49920,
            "uri" : "phone.bin"
        }
    ]
}
